<mxfile host="drawio-plugin" modified="2022-11-14T12:54:09.419Z" agent="5.0 (X11; Linux x86_64) AppleWebKit/537.36 (KHTML, like Gecko) Chrome/98.0.4758.102 Safari/537.36" etag="b4jJ-n7w_IUNzRTI4PPt" version="15.5.4" type="embed"><diagram id="7XTNPxkSU3j8PefIjzne" name="Страница 1"><mxGraphModel dx="2587" dy="1821" grid="0" gridSize="10" guides="0" tooltips="1" connect="1" arrows="1" fold="1" page="1" pageScale="1" pageWidth="827" pageHeight="1169" math="0" shadow="0"><root><mxCell id="0"/><mxCell id="1" parent="0"/><mxCell id="QncEFmr8cqV8E81SRfob-5" value="&lt;h3&gt;User&lt;/h3&gt;" style="rounded=1;whiteSpace=wrap;html=1;sketch=0;strokeWidth=4;fontSize=13;fillColor=#ffe6cc;strokeColor=#d79b00;aspect=fixed;" parent="1" vertex="1"><mxGeometry x="83" y="209" width="120" height="60" as="geometry"/></mxCell><mxCell id="QncEFmr8cqV8E81SRfob-6" value="&lt;h3&gt;Blog&lt;/h3&gt;" style="rounded=1;whiteSpace=wrap;html=1;sketch=0;strokeWidth=4;fontSize=13;fillColor=#ffe6cc;strokeColor=#d79b00;" parent="1" vertex="1"><mxGeometry x="452" y="229" width="120" height="60" as="geometry"/></mxCell><mxCell id="QncEFmr8cqV8E81SRfob-8" value="&lt;h3 style=&quot;font-size: 10px;&quot;&gt;Feed&lt;/h3&gt;" style="rounded=1;whiteSpace=wrap;html=1;sketch=0;strokeWidth=2;fontSize=10;fillColor=#fff2cc;strokeColor=#d6b656;" parent="1" vertex="1"><mxGeometry x="501" y="383" width="70" height="40" as="geometry"/></mxCell><mxCell id="QncEFmr8cqV8E81SRfob-9" value="&lt;h3 style=&quot;font-size: 10px;&quot;&gt;Search&lt;/h3&gt;" style="rounded=1;whiteSpace=wrap;html=1;sketch=0;strokeWidth=2;fontSize=10;fillColor=#fff2cc;strokeColor=#d6b656;" parent="1" vertex="1"><mxGeometry x="659" y="329" width="70" height="40" as="geometry"/></mxCell><mxCell id="QncEFmr8cqV8E81SRfob-18" value="" style="endArrow=classic;html=1;rounded=0;fontSize=10;" parent="1" edge="1"><mxGeometry width="50" height="50" relative="1" as="geometry"><mxPoint x="524" y="303" as="sourcePoint"/><mxPoint x="532" y="356" as="targetPoint"/><Array as="points"><mxPoint x="532" y="347"/></Array></mxGeometry></mxCell><mxCell id="QncEFmr8cqV8E81SRfob-19" value="" style="endArrow=classic;html=1;rounded=0;fontSize=10;" parent="1" edge="1"><mxGeometry width="50" height="50" relative="1" as="geometry"><mxPoint x="590" y="283" as="sourcePoint"/><mxPoint x="652" y="312" as="targetPoint"/><Array as="points"><mxPoint x="623" y="294"/></Array></mxGeometry></mxCell><mxCell id="QncEFmr8cqV8E81SRfob-20" value="&lt;h3&gt;MongoDB&lt;/h3&gt;" style="shape=cylinder3;whiteSpace=wrap;html=1;boundedLbl=1;backgroundOutline=1;size=15;sketch=0;strokeWidth=2;fontSize=10;fillColor=#f8cecc;strokeColor=#b85450;" parent="1" vertex="1"><mxGeometry x="52" y="28" width="70" height="78" as="geometry"/></mxCell><mxCell id="QncEFmr8cqV8E81SRfob-21" value="&lt;h3&gt;PostgreSQL&lt;/h3&gt;" style="shape=cylinder3;whiteSpace=wrap;html=1;boundedLbl=1;backgroundOutline=1;size=15;sketch=0;strokeWidth=2;fontSize=10;fillColor=#f8cecc;strokeColor=#b85450;" parent="1" vertex="1"><mxGeometry x="585" y="56" width="80" height="81" as="geometry"/></mxCell><mxCell id="QncEFmr8cqV8E81SRfob-22" value="&lt;h3 style=&quot;font-size: 10px;&quot;&gt;Post&lt;/h3&gt;" style="rounded=1;whiteSpace=wrap;html=1;sketch=0;strokeWidth=2;fontSize=10;fillColor=#fff2cc;strokeColor=#d6b656;" parent="1" vertex="1"><mxGeometry x="359" y="340" width="70" height="40" as="geometry"/></mxCell><mxCell id="QncEFmr8cqV8E81SRfob-23" value="" style="endArrow=classic;html=1;rounded=0;fontSize=10;" parent="1" edge="1"><mxGeometry width="50" height="50" relative="1" as="geometry"><mxPoint x="445" y="294" as="sourcePoint"/><mxPoint x="421" y="324" as="targetPoint"/></mxGeometry></mxCell><mxCell id="QncEFmr8cqV8E81SRfob-28" value="&lt;h2&gt;&lt;br&gt;&lt;/h2&gt;" style="ellipse;whiteSpace=wrap;html=1;sketch=0;strokeWidth=2;fontSize=10;" parent="1" vertex="1"><mxGeometry x="239" y="14" width="246" height="148" as="geometry"/></mxCell><mxCell id="QncEFmr8cqV8E81SRfob-29" value="" style="endArrow=classic;html=1;rounded=0;fontSize=10;" parent="1" edge="1"><mxGeometry width="50" height="50" relative="1" as="geometry"><mxPoint x="452" y="214" as="sourcePoint"/><mxPoint x="424" y="170" as="targetPoint"/></mxGeometry></mxCell><mxCell id="QncEFmr8cqV8E81SRfob-30" value="" style="endArrow=classic;html=1;rounded=0;fontSize=10;" parent="1" edge="1"><mxGeometry width="50" height="50" relative="1" as="geometry"><mxPoint x="220" y="214" as="sourcePoint"/><mxPoint x="271" y="170" as="targetPoint"/><Array as="points"/></mxGeometry></mxCell><mxCell id="QncEFmr8cqV8E81SRfob-33" value="" style="endArrow=classic;html=1;rounded=0;fontSize=10;" parent="1" edge="1"><mxGeometry width="50" height="50" relative="1" as="geometry"><mxPoint x="127" y="197" as="sourcePoint"/><mxPoint x="98" y="117" as="targetPoint"/></mxGeometry></mxCell><mxCell id="QncEFmr8cqV8E81SRfob-34" value="" style="endArrow=classic;html=1;rounded=0;fontSize=10;" parent="1" edge="1"><mxGeometry width="50" height="50" relative="1" as="geometry"><mxPoint x="568" y="212" as="sourcePoint"/><mxPoint x="605" y="148" as="targetPoint"/></mxGeometry></mxCell><mxCell id="QncEFmr8cqV8E81SRfob-35" value="" style="endArrow=classic;html=1;rounded=0;fontSize=10;" parent="1" edge="1"><mxGeometry width="50" height="50" relative="1" as="geometry"><mxPoint x="-58" y="258" as="sourcePoint"/><mxPoint x="16" y="258" as="targetPoint"/></mxGeometry></mxCell><mxCell id="QncEFmr8cqV8E81SRfob-36" value="HTTP" style="text;html=1;strokeColor=none;fillColor=none;align=center;verticalAlign=middle;whiteSpace=wrap;rounded=0;sketch=0;strokeWidth=2;fontSize=10;" parent="1" vertex="1"><mxGeometry x="-51" y="224" width="60" height="30" as="geometry"/></mxCell><mxCell id="QncEFmr8cqV8E81SRfob-38" value="&lt;h3&gt;Notify to email&lt;/h3&gt;" style="rounded=1;whiteSpace=wrap;html=1;sketch=0;strokeWidth=4;fontSize=13;fillColor=#ffe6cc;strokeColor=#d79b00;" parent="1" vertex="1"><mxGeometry x="307" y="-83" width="113" height="50" as="geometry"/></mxCell><mxCell id="QncEFmr8cqV8E81SRfob-39" value="" style="endArrow=classic;html=1;rounded=0;fontSize=10;" parent="1" edge="1"><mxGeometry width="50" height="50" relative="1" as="geometry"><mxPoint x="361" as="sourcePoint"/><mxPoint x="361" y="-21" as="targetPoint"/><Array as="points"/></mxGeometry></mxCell><mxCell id="3" value="&lt;h3&gt;&lt;font style=&quot;font-size: 11px&quot;&gt;Subscribe to user&lt;/font&gt;&lt;/h3&gt;" style="rounded=1;whiteSpace=wrap;html=1;strokeWidth=2;fillColor=#fff2cc;strokeColor=#d6b656;" vertex="1" parent="1"><mxGeometry x="308" y="89" width="114" height="36" as="geometry"/></mxCell><mxCell id="5" value="&lt;h2&gt;RabbitMQ&lt;/h2&gt;" style="text;html=1;strokeColor=none;fillColor=none;align=center;verticalAlign=middle;whiteSpace=wrap;rounded=0;" vertex="1" parent="1"><mxGeometry x="333" y="22" width="60" height="30" as="geometry"/></mxCell><mxCell id="37" value="&lt;h3 style=&quot;font-size: 10px&quot;&gt;Auth&lt;/h3&gt;" style="rounded=1;whiteSpace=wrap;html=1;sketch=0;strokeWidth=2;fontSize=10;fillColor=#fff2cc;strokeColor=#d6b656;" vertex="1" parent="1"><mxGeometry x="168" y="315" width="70" height="40" as="geometry"/></mxCell><mxCell id="38" value="&lt;h3 style=&quot;font-size: 10px&quot;&gt;Registration&lt;/h3&gt;" style="rounded=1;whiteSpace=wrap;html=1;sketch=0;strokeWidth=2;fontSize=10;fillColor=#fff2cc;strokeColor=#d6b656;" vertex="1" parent="1"><mxGeometry x="45" y="315" width="70" height="40" as="geometry"/></mxCell><mxCell id="40" value="" style="endArrow=classic;html=1;rounded=0;fontSize=10;" edge="1" parent="1"><mxGeometry width="50" height="50" relative="1" as="geometry"><mxPoint x="184" y="278" as="sourcePoint"/><mxPoint x="199" y="302" as="targetPoint"/><Array as="points"><mxPoint x="199" y="302"/></Array></mxGeometry></mxCell><mxCell id="41" value="" style="endArrow=classic;html=1;rounded=0;fontSize=10;" edge="1" parent="1"><mxGeometry width="50" height="50" relative="1" as="geometry"><mxPoint x="101" y="280" as="sourcePoint"/><mxPoint x="82" y="303" as="targetPoint"/></mxGeometry></mxCell></root></mxGraphModel></diagram></mxfile>
